<svg xmlns="http://www.w3.org/2000/svg" viewBox="0 0 164 43"><defs><style>.a{fill:#333;}</style></defs><title>未标题-4-01</title><path class="a" d="M4.1,10.206l6.528,18.656L16.2,10.206h3.52l-6.56,20.673c-.021.085-.043.159-.064.223l-.064.192a.2.2,0,0,0-.048.08.253.253,0,0,0-.016.08l-.048.1c-.011.021-.027.053-.048.1a2.352,2.352,0,0,1-.32.479,2.779,2.779,0,0,1-.448.416,2.268,2.268,0,0,1-.624.257,3.4,3.4,0,0,1-.848.1,3.827,3.827,0,0,1-.832-.08,4.849,4.849,0,0,1-.608-.176,2.377,2.377,0,0,1-.464-.465,3.993,3.993,0,0,1-.464-.783,1.408,1.408,0,0,0-.08-.192l-.112-.224c-.021-.086-.048-.176-.08-.272a2.134,2.134,0,0,0-.112-.272L.584,10.206Z"/><path class="a" d="M22.953,17.582a9.258,9.258,0,0,1,1.92-3.088,15.11,15.11,0,0,1,2.72-2.336,11.659,11.659,0,0,1,2.944-1.408q.352-.127.72-.224a4.508,4.508,0,0,1,.72-.128q.352-.064.72-.1c.245-.021.485-.032.72-.032l3.264-.064V12.99H34.152a13.109,13.109,0,0,0-3.824.992,7.722,7.722,0,0,0-2.768,2.048,9.664,9.664,0,0,0-1.648,2.688,7.808,7.808,0,0,0-.56,2.912c0,.213.01.459.032.736a7.357,7.357,0,0,0,.128.9q.064.226.112.48a2.271,2.271,0,0,0,.144.48,3.866,3.866,0,0,0,.16.5c.064.16.139.324.224.5a6.8,6.8,0,0,0,1.056,1.7,11.025,11.025,0,0,0,1.6,1.536,6.279,6.279,0,0,0,2.256,1.1,11.624,11.624,0,0,0,3.088.367l2.528-.064v2.785H32.648a11.1,11.1,0,0,1-4.384-.881A8.9,8.9,0,0,1,25,29.311a11.027,11.027,0,0,1-2.016-3.584,13.5,13.5,0,0,1-.672-4.353V21.31A10.554,10.554,0,0,1,22.953,17.582Z"/><path class="a" d="M40.3,17.022V16.51a1.627,1.627,0,0,1,.032-.32q.031-.16.064-.32a7.028,7.028,0,0,1,.656-2.128,8.105,8.105,0,0,1,1.36-1.936,5.5,5.5,0,0,1,2.144-1.44,9.949,9.949,0,0,1,3.072-.608,8.834,8.834,0,0,1,2.64.384,8.289,8.289,0,0,1,2.288,1.12,4.868,4.868,0,0,1,1.584,1.9,6.213,6.213,0,0,1,.528,2.64,12.144,12.144,0,0,1-.112,1.792,3.446,3.446,0,0,1-.368,1.184,3.4,3.4,0,0,1-.592.832,7.757,7.757,0,0,1-.816.736.494.494,0,0,1-.08.064.959.959,0,0,1-.112.064.494.494,0,0,1-.08.064.959.959,0,0,1-.112.064,6.284,6.284,0,0,1,1.5.784,3.891,3.891,0,0,1,1.024,1.073,6.475,6.475,0,0,1,.608,1.215,6.366,6.366,0,0,1,.32,1.248v.129a.275.275,0,0,0,.032.127v.385a.129.129,0,0,0,.032.1v.576a.137.137,0,0,0,.016.064.148.148,0,0,1,.016.063,6.676,6.676,0,0,1-.448,2.5,5.981,5.981,0,0,1-1.344,2.017,5.9,5.9,0,0,1-1.968,1.327,6.239,6.239,0,0,1-2.352.433H44.584V29.631h4.032a4.575,4.575,0,0,0,1.584-.145,4.971,4.971,0,0,0,1.392-.624,2.737,2.737,0,0,0,.976-1.088,3.619,3.619,0,0,0,.336-1.632,4.039,4.039,0,0,0-.352-1.76,2.683,2.683,0,0,0-1.024-1.152,4.74,4.74,0,0,0-1.536-.656,8.064,8.064,0,0,0-1.888-.208l-3.52-.063V19.55h2.784a5.68,5.68,0,0,0,1.824-.144,3.118,3.118,0,0,0,1.248-.624,4.044,4.044,0,0,0,.768-.864,2.666,2.666,0,0,0,.384-.96v-.064a.247.247,0,0,1,.032-.1v-.224a.245.245,0,0,1,.032-.1v-.16a4.105,4.105,0,0,0-.272-1.52,3.289,3.289,0,0,0-.816-1.2,3.062,3.062,0,0,0-1.264-.8,5.187,5.187,0,0,0-1.68-.256,4.958,4.958,0,0,0-1.776.288,2.7,2.7,0,0,0-1.2.864,4.993,4.993,0,0,0-.7,1.216,4.714,4.714,0,0,0-.32,1.312.559.559,0,0,0-.032.176V32.639H40.3Z"/><path class="a" d="M59.048,23.582h7.3v2.5h-7.3Z"/><path class="a" d="M77.288,29.854a4.23,4.23,0,0,0,1.344-.079,3.384,3.384,0,0,0,1.056-.433,2.3,2.3,0,0,0,.736-.768,3.045,3.045,0,0,0,.384-1.152,3.076,3.076,0,0,0-.191-1.088,3.648,3.648,0,0,0-.576-.992,4.856,4.856,0,0,0-.96-.9,10.6,10.6,0,0,0-1.312-.8l-.256-.129-.256-.127L77,23.262l-.256-.127H76.68a.057.057,0,0,1-.063-.064q-1.345-.64-2.576-1.344t-2.353-1.472a5.343,5.343,0,0,1-1.647-1.792,4.715,4.715,0,0,1-.561-2.3v-.352a6.3,6.3,0,0,1,.336-2.144,3.627,3.627,0,0,1,1.04-1.536,7.516,7.516,0,0,1,1.473-1.056,6.25,6.25,0,0,1,1.632-.608,2.357,2.357,0,0,1,.256-.048,2.048,2.048,0,0,0,.256-.048.5.5,0,0,0,.128-.016c.043-.01.1-.026.16-.048a.5.5,0,0,0,.128-.016.547.547,0,0,1,.128-.016l7.809-.064V12.99h-7.3a4.87,4.87,0,0,0-1.2.256,2.458,2.458,0,0,0-.912.576,2.807,2.807,0,0,0-.576.8,3.081,3.081,0,0,0-.256.864.091.091,0,0,1-.032.064v.256a3.015,3.015,0,0,0,.048.544,1.93,1.93,0,0,0,.177.512,2.018,2.018,0,0,0,.735.736q.735.512,1.424.928t1.3.736q.64.32,1.217.624t1.151.592c.106.064.208.123.3.176s.187.1.271.144c.043.021.091.048.145.08a.851.851,0,0,0,.176.08.406.406,0,0,0,.144.1c.054.021.1.043.145.064q.1.064.208.144a1.717,1.717,0,0,0,.239.144c.064.043.139.091.225.144a2.922,2.922,0,0,0,.256.144,7.817,7.817,0,0,1,1.1.9,9.837,9.837,0,0,1,1.009,1.152,4.867,4.867,0,0,1,.735,1.439,5.638,5.638,0,0,1,.256,1.729c0,.149,0,.31-.016.48s-.027.341-.048.512-.043.347-.064.527a4.172,4.172,0,0,1-.1.528,5.344,5.344,0,0,1-.576,1.345,5.761,5.761,0,0,1-.992,1.215,3.682,3.682,0,0,1-1.584.849,8.835,8.835,0,0,1-2.352.272H69.224V29.854Z"/><path class="a" d="M88.455,13.5h3.009v3.776h5.823V20.03H91.464v7.808a4.482,4.482,0,0,0,.063.8,3.456,3.456,0,0,0,.192.672.84.84,0,0,0,.56.464,3.961,3.961,0,0,0,1.2.144l3.552-.064v2.785H93.079c-.011,0-.026.01-.048.031h-.224a5.052,5.052,0,0,1-1.888-.32,3.02,3.02,0,0,1-1.312-.991,5.274,5.274,0,0,1-.784-1.44,6.188,6.188,0,0,1-.336-1.6.318.318,0,0,1-.032-.145V13.5Z"/><path class="a" d="M102.919,17.278V26.59a4.517,4.517,0,0,0,.256,1.584,3.232,3.232,0,0,0,1.984,2,4.265,4.265,0,0,0,1.536.256,3.409,3.409,0,0,0,1.247-.224,2.486,2.486,0,0,0,.992-.7,4.992,4.992,0,0,0,.736-1.008,4.2,4.2,0,0,0,.416-1.1c.021-.086.037-.166.048-.24a2.423,2.423,0,0,1,.048-.24v-.128a.285.285,0,0,1,.032-.128V17.278H113v9.056a.093.093,0,0,0,.032.064v.256a7.048,7.048,0,0,1-.433,2.5,6.6,6.6,0,0,1-1.3,2.111,5.39,5.39,0,0,1-2.016,1.424,6.881,6.881,0,0,1-2.592.465,8.056,8.056,0,0,1-2.593-.4,6.258,6.258,0,0,1-2.111-1.2,5.086,5.086,0,0,1-1.393-2.177,9.937,9.937,0,0,1-.464-3.231V17.278Z"/><path class="a" d="M132.743,10.462V25.055a.089.089,0,0,0,.032.063v.224a5.685,5.685,0,0,1-.048.705q-.048.384-.145.832c-.063.277-.139.57-.224.879a7.169,7.169,0,0,1-.32.912,7.983,7.983,0,0,1-.976,1.633,10.636,10.636,0,0,1-1.393,1.472,5.091,5.091,0,0,1-1.888,1.04,8.357,8.357,0,0,1-2.464.336h-.384a11.464,11.464,0,0,1-3.328-.608,5.618,5.618,0,0,1-2.3-1.5,8.494,8.494,0,0,1-1.408-2.08,7.71,7.71,0,0,1-.672-2.272l-.064-.319a1.61,1.61,0,0,1-.032-.319V24.958a8.271,8.271,0,0,1,.353-2.7,5.972,5.972,0,0,1,1.152-2.1,8.911,8.911,0,0,1,1.632-1.5,7.369,7.369,0,0,1,1.76-.928q.256-.1.528-.176a3.255,3.255,0,0,1,.56-.112,2.891,2.891,0,0,1,.528-.08q.271-.016.527-.016a17.107,17.107,0,0,1,1.776.08,6.014,6.014,0,0,1,1.232.24,5.473,5.473,0,0,1,.863.3,4.84,4.84,0,0,1,.672.368V21.31a.285.285,0,0,1-.144-.048.9.9,0,0,0-.176-.08.388.388,0,0,0-.1-.064.355.355,0,0,1-.1-.064.2.2,0,0,1-.112-.032,1.112,1.112,0,0,0-.111-.064,6.185,6.185,0,0,0-.736-.3q-.416-.144-.9-.272a5.27,5.27,0,0,0-.96-.224,7.3,7.3,0,0,0-.96-.064h-.385a.092.092,0,0,1-.063.032h-.064a3.979,3.979,0,0,0-1.456.48,6.087,6.087,0,0,0-1.328,1.024,4.506,4.506,0,0,0-.943,1.52,5.567,5.567,0,0,0-.336,2v.191a.091.091,0,0,0,.031.064v.256a7.691,7.691,0,0,0,.433,1.872,3.947,3.947,0,0,0,.784,1.3,4.974,4.974,0,0,0,.991.832,4.169,4.169,0,0,0,1.089.48,4.4,4.4,0,0,0,.527.16,5,5,0,0,0,.528.1,3.969,3.969,0,0,0,.5.031h.464a4.323,4.323,0,0,0,2.1-.479,3.388,3.388,0,0,0,1.393-1.472,8.312,8.312,0,0,0,.768-2.112,11.493,11.493,0,0,0,.256-2.5V10.462Z"/><path class="a" d="M138.759,13.07a1.309,1.309,0,0,1,.416-.528,2.17,2.17,0,0,1,.56-.3,1.8,1.8,0,0,1,.624-.112,2.023,2.023,0,0,1,.641.1,1.954,1.954,0,0,1,.575.32,1.456,1.456,0,0,1,.433.528,1.672,1.672,0,0,1,.144.72,1.782,1.782,0,0,1-.144.736,1.558,1.558,0,0,1-.4.544,1.935,1.935,0,0,1-.576.32,1.907,1.907,0,0,1-.607.1,1.641,1.641,0,0,1-.641-.064,1.851,1.851,0,0,1-.607-.32,1.262,1.262,0,0,1-.416-.56,2.082,2.082,0,0,1-.128-.752v-.064A1.662,1.662,0,0,1,138.759,13.07Zm.1,4.208h2.784v15.36h-2.784Z"/><path class="a" d="M147.878,21.406a6.982,6.982,0,0,1,1.792-2.464,8.747,8.747,0,0,1,2.576-1.584,7.842,7.842,0,0,1,2.864-.528h.288a.314.314,0,0,0,.144.032h.5a.318.318,0,0,0,.145.032h.144a8.585,8.585,0,0,1,2.448.752,10.458,10.458,0,0,1,2.256,1.488,6.089,6.089,0,0,1,1.6,2.4,9.472,9.472,0,0,1,.545,3.36v.256a.726.726,0,0,1-.032.224,2.074,2.074,0,0,1-.017.257,2.033,2.033,0,0,0-.016.256q-.032.255-.08.512t-.112.512a8.626,8.626,0,0,1-.88,2.191,9.283,9.283,0,0,1-1.52,1.969,5.537,5.537,0,0,1-2.145,1.376,8.215,8.215,0,0,1-2.784.448,10.749,10.749,0,0,1-3.76-.592,5.927,5.927,0,0,1-2.576-1.809,8.525,8.525,0,0,1-1.487-2.687,9.848,9.848,0,0,1-.5-3.168v-.064A7.921,7.921,0,0,1,147.878,21.406Zm2.433,3.632a3.033,3.033,0,0,0,.032.433c.021.148.048.293.079.432s.059.283.08.432a5.625,5.625,0,0,0,.513,1.376,7.1,7.1,0,0,0,.863,1.28,3.252,3.252,0,0,0,1.345.9,5.585,5.585,0,0,0,1.888.287,6.258,6.258,0,0,0,1.92-.287,5.225,5.225,0,0,0,1.632-.865,3.446,3.446,0,0,0,1.1-1.68,8.63,8.63,0,0,0,.368-2.7,6.129,6.129,0,0,0-.32-2.033,4.688,4.688,0,0,0-.96-1.615,4.156,4.156,0,0,0-1.584-1.024,6.156,6.156,0,0,0-2.16-.352,5.807,5.807,0,0,0-1.984.3,3.226,3.226,0,0,0-1.376.944,5.553,5.553,0,0,0-1.344,2.752c-.021.085-.043.171-.063.256a1.044,1.044,0,0,0-.032.256v.912Z"/></svg>
